<mxfile host="app.diagrams.net" agent="Mozilla/5.0 (Windows NT 10.0; Win64; x64) AppleWebKit/537.36 (KHTML, like Gecko) Chrome/134.0.0.0 Safari/537.36" version="26.1.1">
  <diagram name="Page-1" id="wFJz2nj6c6bFOY_GDJTq">
    <mxGraphModel grid="1" page="1" gridSize="10" guides="1" tooltips="1" connect="1" arrows="1" fold="1" pageScale="1" pageWidth="827" pageHeight="1169" math="0" shadow="0">
      <root>
        <mxCell id="0" />
        <mxCell id="1" parent="0" />
        <mxCell id="fWn43nGe3we49iz473pc-1" value="Độc giả" style="swimlane;fontStyle=0;align=center;verticalAlign=top;childLayout=stackLayout;horizontal=1;startSize=33;horizontalStack=0;resizeParent=1;resizeParentMax=0;resizeLast=0;collapsible=0;marginBottom=0;html=1;whiteSpace=wrap;" vertex="1" parent="1">
          <mxGeometry x="1210" y="190" width="140" height="141" as="geometry" />
        </mxCell>
        <mxCell id="fWn43nGe3we49iz473pc-5" value="- MaDG: String" style="text;html=1;strokeColor=none;fillColor=none;align=left;verticalAlign=middle;spacingLeft=4;spacingRight=4;overflow=hidden;rotatable=0;points=[[0,0.5],[1,0.5]];portConstraint=eastwest;whiteSpace=wrap;" vertex="1" parent="fWn43nGe3we49iz473pc-1">
          <mxGeometry y="33" width="140" height="20" as="geometry" />
        </mxCell>
        <mxCell id="2GPwKbx385C8zIqfrWyg-1" value="- TenDG: String" style="text;html=1;strokeColor=none;fillColor=none;align=left;verticalAlign=middle;spacingLeft=4;spacingRight=4;overflow=hidden;rotatable=0;points=[[0,0.5],[1,0.5]];portConstraint=eastwest;whiteSpace=wrap;" vertex="1" parent="fWn43nGe3we49iz473pc-1">
          <mxGeometry y="53" width="140" height="20" as="geometry" />
        </mxCell>
        <mxCell id="2GPwKbx385C8zIqfrWyg-2" value="- SDT: String" style="text;html=1;strokeColor=none;fillColor=none;align=left;verticalAlign=middle;spacingLeft=4;spacingRight=4;overflow=hidden;rotatable=0;points=[[0,0.5],[1,0.5]];portConstraint=eastwest;whiteSpace=wrap;" vertex="1" parent="fWn43nGe3we49iz473pc-1">
          <mxGeometry y="73" width="140" height="20" as="geometry" />
        </mxCell>
        <mxCell id="_kpmnMh5QMuOh7V0zKKd-24" value="- Email: String" style="text;html=1;strokeColor=none;fillColor=none;align=left;verticalAlign=middle;spacingLeft=4;spacingRight=4;overflow=hidden;rotatable=0;points=[[0,0.5],[1,0.5]];portConstraint=eastwest;whiteSpace=wrap;" vertex="1" parent="fWn43nGe3we49iz473pc-1">
          <mxGeometry y="93" width="140" height="20" as="geometry" />
        </mxCell>
        <mxCell id="BS0XPvze6L5QGdwFv2g_-4" value="- GioiTinh: boolean" style="text;html=1;strokeColor=none;fillColor=none;align=left;verticalAlign=middle;spacingLeft=4;spacingRight=4;overflow=hidden;rotatable=0;points=[[0,0.5],[1,0.5]];portConstraint=eastwest;whiteSpace=wrap;" vertex="1" parent="fWn43nGe3we49iz473pc-1">
          <mxGeometry y="113" width="140" height="20" as="geometry" />
        </mxCell>
        <mxCell id="fWn43nGe3we49iz473pc-6" value="" style="line;strokeWidth=1;fillColor=none;align=left;verticalAlign=middle;spacingTop=-1;spacingLeft=3;spacingRight=3;rotatable=0;labelPosition=right;points=[];portConstraint=eastwest;" vertex="1" parent="fWn43nGe3we49iz473pc-1">
          <mxGeometry y="133" width="140" height="8" as="geometry" />
        </mxCell>
        <mxCell id="fWn43nGe3we49iz473pc-9" value="Nhân viên" style="swimlane;fontStyle=0;align=center;verticalAlign=top;childLayout=stackLayout;horizontal=1;startSize=38;horizontalStack=0;resizeParent=1;resizeParentMax=0;resizeLast=0;collapsible=0;marginBottom=0;html=1;whiteSpace=wrap;" vertex="1" parent="1">
          <mxGeometry x="1210" y="358" width="140" height="186" as="geometry" />
        </mxCell>
        <mxCell id="fWn43nGe3we49iz473pc-13" value="- MaNV: String" style="text;html=1;strokeColor=none;fillColor=none;align=left;verticalAlign=middle;spacingLeft=4;spacingRight=4;overflow=hidden;rotatable=0;points=[[0,0.5],[1,0.5]];portConstraint=eastwest;whiteSpace=wrap;" vertex="1" parent="fWn43nGe3we49iz473pc-9">
          <mxGeometry y="38" width="140" height="20" as="geometry" />
        </mxCell>
        <mxCell id="2GPwKbx385C8zIqfrWyg-3" value="- TenNV: String" style="text;html=1;strokeColor=none;fillColor=none;align=left;verticalAlign=middle;spacingLeft=4;spacingRight=4;overflow=hidden;rotatable=0;points=[[0,0.5],[1,0.5]];portConstraint=eastwest;whiteSpace=wrap;" vertex="1" parent="fWn43nGe3we49iz473pc-9">
          <mxGeometry y="58" width="140" height="20" as="geometry" />
        </mxCell>
        <mxCell id="2GPwKbx385C8zIqfrWyg-4" value="- SDT: String" style="text;html=1;strokeColor=none;fillColor=none;align=left;verticalAlign=middle;spacingLeft=4;spacingRight=4;overflow=hidden;rotatable=0;points=[[0,0.5],[1,0.5]];portConstraint=eastwest;whiteSpace=wrap;" vertex="1" parent="fWn43nGe3we49iz473pc-9">
          <mxGeometry y="78" width="140" height="20" as="geometry" />
        </mxCell>
        <mxCell id="RapIi0xfBOsbwbEgym8z-1" value="- Email: String" style="text;html=1;strokeColor=none;fillColor=none;align=left;verticalAlign=middle;spacingLeft=4;spacingRight=4;overflow=hidden;rotatable=0;points=[[0,0.5],[1,0.5]];portConstraint=eastwest;whiteSpace=wrap;" vertex="1" parent="fWn43nGe3we49iz473pc-9">
          <mxGeometry y="98" width="140" height="20" as="geometry" />
        </mxCell>
        <mxCell id="RapIi0xfBOsbwbEgym8z-2" value="- MatKhau: String" style="text;html=1;strokeColor=none;fillColor=none;align=left;verticalAlign=middle;spacingLeft=4;spacingRight=4;overflow=hidden;rotatable=0;points=[[0,0.5],[1,0.5]];portConstraint=eastwest;whiteSpace=wrap;" vertex="1" parent="fWn43nGe3we49iz473pc-9">
          <mxGeometry y="118" width="140" height="20" as="geometry" />
        </mxCell>
        <mxCell id="EW-puYVzx-aZRHAuF-Rj-1" value="- ChucVu: boolean" style="text;html=1;strokeColor=none;fillColor=none;align=left;verticalAlign=middle;spacingLeft=4;spacingRight=4;overflow=hidden;rotatable=0;points=[[0,0.5],[1,0.5]];portConstraint=eastwest;whiteSpace=wrap;" vertex="1" parent="fWn43nGe3we49iz473pc-9">
          <mxGeometry y="138" width="140" height="20" as="geometry" />
        </mxCell>
        <mxCell id="BS0XPvze6L5QGdwFv2g_-5" value="- GioiTinh: boolean" style="text;html=1;strokeColor=none;fillColor=none;align=left;verticalAlign=middle;spacingLeft=4;spacingRight=4;overflow=hidden;rotatable=0;points=[[0,0.5],[1,0.5]];portConstraint=eastwest;whiteSpace=wrap;" vertex="1" parent="fWn43nGe3we49iz473pc-9">
          <mxGeometry y="158" width="140" height="20" as="geometry" />
        </mxCell>
        <mxCell id="fWn43nGe3we49iz473pc-14" value="" style="line;strokeWidth=1;fillColor=none;align=left;verticalAlign=middle;spacingTop=-1;spacingLeft=3;spacingRight=3;rotatable=0;labelPosition=right;points=[];portConstraint=eastwest;" vertex="1" parent="fWn43nGe3we49iz473pc-9">
          <mxGeometry y="178" width="140" height="8" as="geometry" />
        </mxCell>
        <mxCell id="fWn43nGe3we49iz473pc-17" value="Danh mục sách" style="swimlane;fontStyle=0;align=center;verticalAlign=top;childLayout=stackLayout;horizontal=1;startSize=32;horizontalStack=0;resizeParent=1;resizeParentMax=0;resizeLast=0;collapsible=0;marginBottom=0;html=1;whiteSpace=wrap;" vertex="1" parent="1">
          <mxGeometry x="320" y="370" width="160" height="260" as="geometry" />
        </mxCell>
        <mxCell id="fWn43nGe3we49iz473pc-21" value="- MaDMS: String" style="text;html=1;strokeColor=none;fillColor=none;align=left;verticalAlign=middle;spacingLeft=4;spacingRight=4;overflow=hidden;rotatable=0;points=[[0,0.5],[1,0.5]];portConstraint=eastwest;whiteSpace=wrap;" vertex="1" parent="fWn43nGe3we49iz473pc-17">
          <mxGeometry y="32" width="160" height="20" as="geometry" />
        </mxCell>
        <mxCell id="SWDqvlP3mXcbZtxbsvJl-3" value="- MaTG: String" style="text;html=1;strokeColor=none;fillColor=none;align=left;verticalAlign=middle;spacingLeft=4;spacingRight=4;overflow=hidden;rotatable=0;points=[[0,0.5],[1,0.5]];portConstraint=eastwest;whiteSpace=wrap;" vertex="1" parent="fWn43nGe3we49iz473pc-17">
          <mxGeometry y="52" width="160" height="20" as="geometry" />
        </mxCell>
        <mxCell id="SWDqvlP3mXcbZtxbsvJl-4" value="- MaNXB: String" style="text;html=1;strokeColor=none;fillColor=none;align=left;verticalAlign=middle;spacingLeft=4;spacingRight=4;overflow=hidden;rotatable=0;points=[[0,0.5],[1,0.5]];portConstraint=eastwest;whiteSpace=wrap;" vertex="1" parent="fWn43nGe3we49iz473pc-17">
          <mxGeometry y="72" width="160" height="20" as="geometry" />
        </mxCell>
        <mxCell id="SWDqvlP3mXcbZtxbsvJl-7" value="- MaNN: int" style="text;html=1;strokeColor=none;fillColor=none;align=left;verticalAlign=middle;spacingLeft=4;spacingRight=4;overflow=hidden;rotatable=0;points=[[0,0.5],[1,0.5]];portConstraint=eastwest;whiteSpace=wrap;" vertex="1" parent="fWn43nGe3we49iz473pc-17">
          <mxGeometry y="92" width="160" height="20" as="geometry" />
        </mxCell>
        <mxCell id="fWn43nGe3we49iz473pc-58" value="- MaLS: String" style="text;html=1;strokeColor=none;fillColor=none;align=left;verticalAlign=middle;spacingLeft=4;spacingRight=4;overflow=hidden;rotatable=0;points=[[0,0.5],[1,0.5]];portConstraint=eastwest;whiteSpace=wrap;" vertex="1" parent="fWn43nGe3we49iz473pc-17">
          <mxGeometry y="112" width="160" height="20" as="geometry" />
        </mxCell>
        <mxCell id="BS0XPvze6L5QGdwFv2g_-3" value="- MaTL&lt;span style=&quot;background-color: initial;&quot;&gt;: int&lt;/span&gt;" style="text;html=1;strokeColor=none;fillColor=none;align=left;verticalAlign=middle;spacingLeft=4;spacingRight=4;overflow=hidden;rotatable=0;points=[[0,0.5],[1,0.5]];portConstraint=eastwest;whiteSpace=wrap;" vertex="1" parent="fWn43nGe3we49iz473pc-17">
          <mxGeometry y="132" width="160" height="20" as="geometry" />
        </mxCell>
        <mxCell id="SWDqvlP3mXcbZtxbsvJl-2" value="- TenSach: String" style="text;html=1;strokeColor=none;fillColor=none;align=left;verticalAlign=middle;spacingLeft=4;spacingRight=4;overflow=hidden;rotatable=0;points=[[0,0.5],[1,0.5]];portConstraint=eastwest;whiteSpace=wrap;" vertex="1" parent="fWn43nGe3we49iz473pc-17">
          <mxGeometry y="152" width="160" height="20" as="geometry" />
        </mxCell>
        <mxCell id="SWDqvlP3mXcbZtxbsvJl-5" value="- NgayXuatBan: Date" style="text;html=1;strokeColor=none;fillColor=none;align=left;verticalAlign=middle;spacingLeft=4;spacingRight=4;overflow=hidden;rotatable=0;points=[[0,0.5],[1,0.5]];portConstraint=eastwest;whiteSpace=wrap;" vertex="1" parent="fWn43nGe3we49iz473pc-17">
          <mxGeometry y="172" width="160" height="20" as="geometry" />
        </mxCell>
        <mxCell id="SWDqvlP3mXcbZtxbsvJl-8" value="- SoTrang: int" style="text;html=1;strokeColor=none;fillColor=none;align=left;verticalAlign=middle;spacingLeft=4;spacingRight=4;overflow=hidden;rotatable=0;points=[[0,0.5],[1,0.5]];portConstraint=eastwest;whiteSpace=wrap;" vertex="1" parent="fWn43nGe3we49iz473pc-17">
          <mxGeometry y="192" width="160" height="20" as="geometry" />
        </mxCell>
        <mxCell id="_kpmnMh5QMuOh7V0zKKd-23" value="- HinhAnh: String" style="text;html=1;strokeColor=none;fillColor=none;align=left;verticalAlign=middle;spacingLeft=4;spacingRight=4;overflow=hidden;rotatable=0;points=[[0,0.5],[1,0.5]];portConstraint=eastwest;whiteSpace=wrap;" vertex="1" parent="fWn43nGe3we49iz473pc-17">
          <mxGeometry y="212" width="160" height="20" as="geometry" />
        </mxCell>
        <mxCell id="mwNe0YoGe4067pr5ie4i-72" value="- LanTaiBan: int" style="text;html=1;strokeColor=none;fillColor=none;align=left;verticalAlign=middle;spacingLeft=4;spacingRight=4;overflow=hidden;rotatable=0;points=[[0,0.5],[1,0.5]];portConstraint=eastwest;whiteSpace=wrap;" vertex="1" parent="fWn43nGe3we49iz473pc-17">
          <mxGeometry y="232" width="160" height="20" as="geometry" />
        </mxCell>
        <mxCell id="fWn43nGe3we49iz473pc-22" value="" style="line;strokeWidth=1;fillColor=none;align=left;verticalAlign=middle;spacingTop=-1;spacingLeft=3;spacingRight=3;rotatable=0;labelPosition=right;points=[];portConstraint=eastwest;" vertex="1" parent="fWn43nGe3we49iz473pc-17">
          <mxGeometry y="252" width="160" height="8" as="geometry" />
        </mxCell>
        <mxCell id="fWn43nGe3we49iz473pc-25" value="Bản sao sách" style="swimlane;fontStyle=0;align=center;verticalAlign=top;childLayout=stackLayout;horizontal=1;startSize=30;horizontalStack=0;resizeParent=1;resizeParentMax=0;resizeLast=0;collapsible=0;marginBottom=0;html=1;whiteSpace=wrap;" vertex="1" parent="1">
          <mxGeometry x="550" y="285" width="140" height="185" as="geometry" />
        </mxCell>
        <mxCell id="fWn43nGe3we49iz473pc-29" value="- MaBS: String" style="text;html=1;strokeColor=none;fillColor=none;align=left;verticalAlign=middle;spacingLeft=4;spacingRight=4;overflow=hidden;rotatable=0;points=[[0,0.5],[1,0.5]];portConstraint=eastwest;whiteSpace=wrap;" vertex="1" parent="fWn43nGe3we49iz473pc-25">
          <mxGeometry y="30" width="140" height="20" as="geometry" />
        </mxCell>
        <mxCell id="SWDqvlP3mXcbZtxbsvJl-9" value="- MaViTri: int" style="text;html=1;strokeColor=none;fillColor=none;align=left;verticalAlign=middle;spacingLeft=4;spacingRight=4;overflow=hidden;rotatable=0;points=[[0,0.5],[1,0.5]];portConstraint=eastwest;whiteSpace=wrap;" vertex="1" parent="fWn43nGe3we49iz473pc-25">
          <mxGeometry y="50" width="140" height="20" as="geometry" />
        </mxCell>
        <mxCell id="fWn43nGe3we49iz473pc-59" value="- MaDMS: String" style="text;html=1;strokeColor=none;fillColor=none;align=left;verticalAlign=middle;spacingLeft=4;spacingRight=4;overflow=hidden;rotatable=0;points=[[0,0.5],[1,0.5]];portConstraint=eastwest;whiteSpace=wrap;" vertex="1" parent="fWn43nGe3we49iz473pc-25">
          <mxGeometry y="70" width="140" height="20" as="geometry" />
        </mxCell>
        <mxCell id="SWDqvlP3mXcbZtxbsvJl-13" value="- TinhTrang: boolean" style="text;html=1;strokeColor=none;fillColor=none;align=left;verticalAlign=middle;spacingLeft=4;spacingRight=4;overflow=hidden;rotatable=0;points=[[0,0.5],[1,0.5]];portConstraint=eastwest;whiteSpace=wrap;" vertex="1" parent="fWn43nGe3we49iz473pc-25">
          <mxGeometry y="90" width="140" height="20" as="geometry" />
        </mxCell>
        <mxCell id="_kpmnMh5QMuOh7V0zKKd-1" value="- NgayNhap: Date" style="text;html=1;strokeColor=none;fillColor=none;align=left;verticalAlign=middle;spacingLeft=4;spacingRight=4;overflow=hidden;rotatable=0;points=[[0,0.5],[1,0.5]];portConstraint=eastwest;whiteSpace=wrap;" vertex="1" parent="fWn43nGe3we49iz473pc-25">
          <mxGeometry y="110" width="140" height="25" as="geometry" />
        </mxCell>
        <mxCell id="fWn43nGe3we49iz473pc-30" value="" style="line;strokeWidth=1;fillColor=none;align=left;verticalAlign=middle;spacingTop=-1;spacingLeft=3;spacingRight=3;rotatable=0;labelPosition=right;points=[];portConstraint=eastwest;" vertex="1" parent="fWn43nGe3we49iz473pc-25">
          <mxGeometry y="135" width="140" height="8" as="geometry" />
        </mxCell>
        <mxCell id="mwNe0YoGe4067pr5ie4i-73" value="- SaoChep(): BanSaoSach" style="text;html=1;strokeColor=none;fillColor=none;align=left;verticalAlign=middle;spacingLeft=4;spacingRight=4;overflow=hidden;rotatable=0;points=[[0,0.5],[1,0.5]];portConstraint=eastwest;whiteSpace=wrap;" vertex="1" parent="fWn43nGe3we49iz473pc-25">
          <mxGeometry y="143" width="140" height="42" as="geometry" />
        </mxCell>
        <mxCell id="fWn43nGe3we49iz473pc-33" value="Phiếu mượn" style="swimlane;fontStyle=0;align=center;verticalAlign=top;childLayout=stackLayout;horizontal=1;startSize=30;horizontalStack=0;resizeParent=1;resizeParentMax=0;resizeLast=0;collapsible=0;marginBottom=0;html=1;whiteSpace=wrap;" vertex="1" parent="1">
          <mxGeometry x="990" y="190" width="140" height="118" as="geometry" />
        </mxCell>
        <mxCell id="fWn43nGe3we49iz473pc-37" value="- MaPM: String" style="text;html=1;strokeColor=none;fillColor=none;align=left;verticalAlign=middle;spacingLeft=4;spacingRight=4;overflow=hidden;rotatable=0;points=[[0,0.5],[1,0.5]];portConstraint=eastwest;whiteSpace=wrap;" vertex="1" parent="fWn43nGe3we49iz473pc-33">
          <mxGeometry y="30" width="140" height="20" as="geometry" />
        </mxCell>
        <mxCell id="fWn43nGe3we49iz473pc-63" value="- MaDG: String" style="text;html=1;strokeColor=none;fillColor=none;align=left;verticalAlign=middle;spacingLeft=4;spacingRight=4;overflow=hidden;rotatable=0;points=[[0,0.5],[1,0.5]];portConstraint=eastwest;whiteSpace=wrap;" vertex="1" parent="fWn43nGe3we49iz473pc-33">
          <mxGeometry y="50" width="140" height="20" as="geometry" />
        </mxCell>
        <mxCell id="fWn43nGe3we49iz473pc-65" value="- MaNV: String" style="text;html=1;strokeColor=none;fillColor=none;align=left;verticalAlign=middle;spacingLeft=4;spacingRight=4;overflow=hidden;rotatable=0;points=[[0,0.5],[1,0.5]];portConstraint=eastwest;whiteSpace=wrap;" vertex="1" parent="fWn43nGe3we49iz473pc-33">
          <mxGeometry y="70" width="140" height="20" as="geometry" />
        </mxCell>
        <mxCell id="6FT918L2VFYGh1TFXX_8-4" value="- NgayMuon: date" style="text;html=1;strokeColor=none;fillColor=none;align=left;verticalAlign=middle;spacingLeft=4;spacingRight=4;overflow=hidden;rotatable=0;points=[[0,0.5],[1,0.5]];portConstraint=eastwest;whiteSpace=wrap;" vertex="1" parent="fWn43nGe3we49iz473pc-33">
          <mxGeometry y="90" width="140" height="20" as="geometry" />
        </mxCell>
        <mxCell id="fWn43nGe3we49iz473pc-38" value="" style="line;strokeWidth=1;fillColor=none;align=left;verticalAlign=middle;spacingTop=-1;spacingLeft=3;spacingRight=3;rotatable=0;labelPosition=right;points=[];portConstraint=eastwest;" vertex="1" parent="fWn43nGe3we49iz473pc-33">
          <mxGeometry y="110" width="140" height="8" as="geometry" />
        </mxCell>
        <mxCell id="fWn43nGe3we49iz473pc-41" value="Phiếu trả" style="swimlane;fontStyle=0;align=center;verticalAlign=top;childLayout=stackLayout;horizontal=1;startSize=27;horizontalStack=0;resizeParent=1;resizeParentMax=0;resizeLast=0;collapsible=0;marginBottom=0;html=1;whiteSpace=wrap;" vertex="1" parent="1">
          <mxGeometry x="990" y="355" width="140" height="115" as="geometry" />
        </mxCell>
        <mxCell id="_kpmnMh5QMuOh7V0zKKd-3" value="- MaPM: String" style="text;html=1;strokeColor=none;fillColor=none;align=left;verticalAlign=middle;spacingLeft=4;spacingRight=4;overflow=hidden;rotatable=0;points=[[0,0.5],[1,0.5]];portConstraint=eastwest;whiteSpace=wrap;" vertex="1" parent="fWn43nGe3we49iz473pc-41">
          <mxGeometry y="27" width="140" height="20" as="geometry" />
        </mxCell>
        <mxCell id="fWn43nGe3we49iz473pc-45" value="- MaPT: String" style="text;html=1;strokeColor=none;fillColor=none;align=left;verticalAlign=middle;spacingLeft=4;spacingRight=4;overflow=hidden;rotatable=0;points=[[0,0.5],[1,0.5]];portConstraint=eastwest;whiteSpace=wrap;" vertex="1" parent="fWn43nGe3we49iz473pc-41">
          <mxGeometry y="47" width="140" height="20" as="geometry" />
        </mxCell>
        <mxCell id="fWn43nGe3we49iz473pc-67" value="- MaNV: String" style="text;html=1;strokeColor=none;fillColor=none;align=left;verticalAlign=middle;spacingLeft=4;spacingRight=4;overflow=hidden;rotatable=0;points=[[0,0.5],[1,0.5]];portConstraint=eastwest;whiteSpace=wrap;" vertex="1" parent="fWn43nGe3we49iz473pc-41">
          <mxGeometry y="67" width="140" height="20" as="geometry" />
        </mxCell>
        <mxCell id="BS0XPvze6L5QGdwFv2g_-6" value="- NgayTra: Date" style="text;html=1;strokeColor=none;fillColor=none;align=left;verticalAlign=middle;spacingLeft=4;spacingRight=4;overflow=hidden;rotatable=0;points=[[0,0.5],[1,0.5]];portConstraint=eastwest;whiteSpace=wrap;" vertex="1" parent="fWn43nGe3we49iz473pc-41">
          <mxGeometry y="87" width="140" height="20" as="geometry" />
        </mxCell>
        <mxCell id="fWn43nGe3we49iz473pc-46" value="" style="line;strokeWidth=1;fillColor=none;align=left;verticalAlign=middle;spacingTop=-1;spacingLeft=3;spacingRight=3;rotatable=0;labelPosition=right;points=[];portConstraint=eastwest;" vertex="1" parent="fWn43nGe3we49iz473pc-41">
          <mxGeometry y="107" width="140" height="8" as="geometry" />
        </mxCell>
        <mxCell id="fWn43nGe3we49iz473pc-49" value="Loại sách" style="swimlane;fontStyle=0;align=center;verticalAlign=top;childLayout=stackLayout;horizontal=1;startSize=30;horizontalStack=0;resizeParent=1;resizeParentMax=0;resizeLast=0;collapsible=0;marginBottom=0;html=1;whiteSpace=wrap;" vertex="1" parent="1">
          <mxGeometry y="480" width="160" height="98" as="geometry" />
        </mxCell>
        <mxCell id="fWn43nGe3we49iz473pc-53" value="- MaLS: String" style="text;html=1;strokeColor=none;fillColor=none;align=left;verticalAlign=middle;spacingLeft=4;spacingRight=4;overflow=hidden;rotatable=0;points=[[0,0.5],[1,0.5]];portConstraint=eastwest;whiteSpace=wrap;" vertex="1" parent="fWn43nGe3we49iz473pc-49">
          <mxGeometry y="30" width="160" height="20" as="geometry" />
        </mxCell>
        <mxCell id="SWDqvlP3mXcbZtxbsvJl-24" value="- TenLoai: String" style="text;html=1;strokeColor=none;fillColor=none;align=left;verticalAlign=middle;spacingLeft=4;spacingRight=4;overflow=hidden;rotatable=0;points=[[0,0.5],[1,0.5]];portConstraint=eastwest;whiteSpace=wrap;" vertex="1" parent="fWn43nGe3we49iz473pc-49">
          <mxGeometry y="50" width="160" height="20" as="geometry" />
        </mxCell>
        <mxCell id="_kpmnMh5QMuOh7V0zKKd-25" value="- MoTa: String" style="text;html=1;strokeColor=none;fillColor=none;align=left;verticalAlign=middle;spacingLeft=4;spacingRight=4;overflow=hidden;rotatable=0;points=[[0,0.5],[1,0.5]];portConstraint=eastwest;whiteSpace=wrap;" vertex="1" parent="fWn43nGe3we49iz473pc-49">
          <mxGeometry y="70" width="160" height="20" as="geometry" />
        </mxCell>
        <mxCell id="fWn43nGe3we49iz473pc-54" value="" style="line;strokeWidth=1;fillColor=none;align=left;verticalAlign=middle;spacingTop=-1;spacingLeft=3;spacingRight=3;rotatable=0;labelPosition=right;points=[];portConstraint=eastwest;" vertex="1" parent="fWn43nGe3we49iz473pc-49">
          <mxGeometry y="90" width="160" height="8" as="geometry" />
        </mxCell>
        <mxCell id="fWn43nGe3we49iz473pc-60" value="" style="edgeStyle=entityRelationEdgeStyle;fontSize=12;html=1;endArrow=ERoneToMany;startArrow=ERmandOne;rounded=0;exitX=1;exitY=0.5;exitDx=0;exitDy=0;entryX=0;entryY=0.5;entryDx=0;entryDy=0;" edge="1" parent="1" source="fWn43nGe3we49iz473pc-21" target="fWn43nGe3we49iz473pc-59">
          <mxGeometry width="100" height="100" relative="1" as="geometry">
            <mxPoint x="360" y="310" as="sourcePoint" />
            <mxPoint x="460" y="210" as="targetPoint" />
          </mxGeometry>
        </mxCell>
        <mxCell id="fWn43nGe3we49iz473pc-64" value="" style="edgeStyle=entityRelationEdgeStyle;fontSize=12;html=1;endArrow=ERoneToMany;startArrow=ERmandOne;rounded=0;exitX=0;exitY=0.5;exitDx=0;exitDy=0;entryX=1;entryY=0.5;entryDx=0;entryDy=0;" edge="1" parent="1" source="fWn43nGe3we49iz473pc-5" target="fWn43nGe3we49iz473pc-63">
          <mxGeometry width="100" height="100" relative="1" as="geometry">
            <mxPoint x="500" y="490" as="sourcePoint" />
            <mxPoint x="600" y="390" as="targetPoint" />
          </mxGeometry>
        </mxCell>
        <mxCell id="fWn43nGe3we49iz473pc-68" value="" style="edgeStyle=entityRelationEdgeStyle;fontSize=12;html=1;endArrow=ERoneToMany;startArrow=ERmandOne;rounded=0;entryX=1;entryY=0.5;entryDx=0;entryDy=0;exitX=0;exitY=0.5;exitDx=0;exitDy=0;" edge="1" parent="1" source="fWn43nGe3we49iz473pc-13" target="fWn43nGe3we49iz473pc-65">
          <mxGeometry width="100" height="100" relative="1" as="geometry">
            <mxPoint x="750" y="520" as="sourcePoint" />
            <mxPoint x="850" y="420" as="targetPoint" />
          </mxGeometry>
        </mxCell>
        <mxCell id="_kpmnMh5QMuOh7V0zKKd-5" value="Chi Tiết Phiếu Mượn" style="swimlane;fontStyle=0;align=center;verticalAlign=top;childLayout=stackLayout;horizontal=1;startSize=30;horizontalStack=0;resizeParent=1;resizeParentMax=0;resizeLast=0;collapsible=0;marginBottom=0;html=1;whiteSpace=wrap;" vertex="1" parent="1">
          <mxGeometry x="760" y="190" width="140" height="138" as="geometry" />
        </mxCell>
        <mxCell id="_kpmnMh5QMuOh7V0zKKd-6" value="- MaPM: String" style="text;html=1;strokeColor=none;fillColor=none;align=left;verticalAlign=middle;spacingLeft=4;spacingRight=4;overflow=hidden;rotatable=0;points=[[0,0.5],[1,0.5]];portConstraint=eastwest;whiteSpace=wrap;" vertex="1" parent="_kpmnMh5QMuOh7V0zKKd-5">
          <mxGeometry y="30" width="140" height="20" as="geometry" />
        </mxCell>
        <mxCell id="mwNe0YoGe4067pr5ie4i-108" value="- MaCTPM: int" style="text;html=1;strokeColor=none;fillColor=none;align=left;verticalAlign=middle;spacingLeft=4;spacingRight=4;overflow=hidden;rotatable=0;points=[[0,0.5],[1,0.5]];portConstraint=eastwest;whiteSpace=wrap;" vertex="1" parent="_kpmnMh5QMuOh7V0zKKd-5">
          <mxGeometry y="50" width="140" height="20" as="geometry" />
        </mxCell>
        <mxCell id="_kpmnMh5QMuOh7V0zKKd-21" value="- MaBS: String" style="text;html=1;strokeColor=none;fillColor=none;align=left;verticalAlign=middle;spacingLeft=4;spacingRight=4;overflow=hidden;rotatable=0;points=[[0,0.5],[1,0.5]];portConstraint=eastwest;whiteSpace=wrap;" vertex="1" parent="_kpmnMh5QMuOh7V0zKKd-5">
          <mxGeometry y="70" width="140" height="20" as="geometry" />
        </mxCell>
        <mxCell id="8rewNL5YBMnPZb8H1XGq-1" value="- TrangThai: boolean" style="text;html=1;strokeColor=none;fillColor=none;align=left;verticalAlign=middle;spacingLeft=4;spacingRight=4;overflow=hidden;rotatable=0;points=[[0,0.5],[1,0.5]];portConstraint=eastwest;whiteSpace=wrap;" vertex="1" parent="_kpmnMh5QMuOh7V0zKKd-5">
          <mxGeometry y="90" width="140" height="20" as="geometry" />
        </mxCell>
        <mxCell id="mwNe0YoGe4067pr5ie4i-79" value="- SoNgayMuon: int" style="text;html=1;strokeColor=none;fillColor=none;align=left;verticalAlign=middle;spacingLeft=4;spacingRight=4;overflow=hidden;rotatable=0;points=[[0,0.5],[1,0.5]];portConstraint=eastwest;whiteSpace=wrap;" vertex="1" parent="_kpmnMh5QMuOh7V0zKKd-5">
          <mxGeometry y="110" width="140" height="20" as="geometry" />
        </mxCell>
        <mxCell id="_kpmnMh5QMuOh7V0zKKd-14" value="" style="line;strokeWidth=1;fillColor=none;align=left;verticalAlign=middle;spacingTop=-1;spacingLeft=3;spacingRight=3;rotatable=0;labelPosition=right;points=[];portConstraint=eastwest;" vertex="1" parent="_kpmnMh5QMuOh7V0zKKd-5">
          <mxGeometry y="130" width="140" height="8" as="geometry" />
        </mxCell>
        <mxCell id="_kpmnMh5QMuOh7V0zKKd-20" value="" style="edgeStyle=entityRelationEdgeStyle;fontSize=12;html=1;endArrow=ERmandOne;startArrow=ERoneToMany;rounded=0;exitX=1;exitY=0.5;exitDx=0;exitDy=0;entryX=0;entryY=0.5;entryDx=0;entryDy=0;endFill=0;startFill=0;" edge="1" parent="1" source="_kpmnMh5QMuOh7V0zKKd-6" target="fWn43nGe3we49iz473pc-37">
          <mxGeometry width="100" height="100" relative="1" as="geometry">
            <mxPoint x="1390" y="264" as="sourcePoint" />
            <mxPoint x="990" y="279" as="targetPoint" />
            <Array as="points">
              <mxPoint x="990" y="279" />
            </Array>
          </mxGeometry>
        </mxCell>
        <mxCell id="mwNe0YoGe4067pr5ie4i-1" value="Nhà xuất bản" style="swimlane;fontStyle=0;align=center;verticalAlign=top;childLayout=stackLayout;horizontal=1;startSize=30;horizontalStack=0;resizeParent=1;resizeParentMax=0;resizeLast=0;collapsible=0;marginBottom=0;html=1;whiteSpace=wrap;" vertex="1" parent="1">
          <mxGeometry y="240" width="160" height="98" as="geometry" />
        </mxCell>
        <mxCell id="mwNe0YoGe4067pr5ie4i-2" value="- MaNXB: String" style="text;html=1;strokeColor=none;fillColor=none;align=left;verticalAlign=middle;spacingLeft=4;spacingRight=4;overflow=hidden;rotatable=0;points=[[0,0.5],[1,0.5]];portConstraint=eastwest;whiteSpace=wrap;" vertex="1" parent="mwNe0YoGe4067pr5ie4i-1">
          <mxGeometry y="30" width="160" height="20" as="geometry" />
        </mxCell>
        <mxCell id="mwNe0YoGe4067pr5ie4i-3" value="- TenNXB: String" style="text;html=1;strokeColor=none;fillColor=none;align=left;verticalAlign=middle;spacingLeft=4;spacingRight=4;overflow=hidden;rotatable=0;points=[[0,0.5],[1,0.5]];portConstraint=eastwest;whiteSpace=wrap;" vertex="1" parent="mwNe0YoGe4067pr5ie4i-1">
          <mxGeometry y="50" width="160" height="20" as="geometry" />
        </mxCell>
        <mxCell id="mwNe0YoGe4067pr5ie4i-4" value="- TenVietTat: String" style="text;html=1;strokeColor=none;fillColor=none;align=left;verticalAlign=middle;spacingLeft=4;spacingRight=4;overflow=hidden;rotatable=0;points=[[0,0.5],[1,0.5]];portConstraint=eastwest;whiteSpace=wrap;" vertex="1" parent="mwNe0YoGe4067pr5ie4i-1">
          <mxGeometry y="70" width="160" height="20" as="geometry" />
        </mxCell>
        <mxCell id="mwNe0YoGe4067pr5ie4i-5" value="" style="line;strokeWidth=1;fillColor=none;align=left;verticalAlign=middle;spacingTop=-1;spacingLeft=3;spacingRight=3;rotatable=0;labelPosition=right;points=[];portConstraint=eastwest;" vertex="1" parent="mwNe0YoGe4067pr5ie4i-1">
          <mxGeometry y="90" width="160" height="8" as="geometry" />
        </mxCell>
        <mxCell id="mwNe0YoGe4067pr5ie4i-10" value="Tác giả" style="swimlane;fontStyle=0;align=center;verticalAlign=top;childLayout=stackLayout;horizontal=1;startSize=30;horizontalStack=0;resizeParent=1;resizeParentMax=0;resizeLast=0;collapsible=0;marginBottom=0;html=1;whiteSpace=wrap;" vertex="1" parent="1">
          <mxGeometry y="120" width="160" height="98" as="geometry" />
        </mxCell>
        <mxCell id="mwNe0YoGe4067pr5ie4i-11" value="- MaTG: String" style="text;html=1;strokeColor=none;fillColor=none;align=left;verticalAlign=middle;spacingLeft=4;spacingRight=4;overflow=hidden;rotatable=0;points=[[0,0.5],[1,0.5]];portConstraint=eastwest;whiteSpace=wrap;" vertex="1" parent="mwNe0YoGe4067pr5ie4i-10">
          <mxGeometry y="30" width="160" height="20" as="geometry" />
        </mxCell>
        <mxCell id="mwNe0YoGe4067pr5ie4i-12" value="- TenTacGia: String" style="text;html=1;strokeColor=none;fillColor=none;align=left;verticalAlign=middle;spacingLeft=4;spacingRight=4;overflow=hidden;rotatable=0;points=[[0,0.5],[1,0.5]];portConstraint=eastwest;whiteSpace=wrap;" vertex="1" parent="mwNe0YoGe4067pr5ie4i-10">
          <mxGeometry y="50" width="160" height="20" as="geometry" />
        </mxCell>
        <mxCell id="mwNe0YoGe4067pr5ie4i-13" value="- GioiTinh: boolean" style="text;html=1;strokeColor=none;fillColor=none;align=left;verticalAlign=middle;spacingLeft=4;spacingRight=4;overflow=hidden;rotatable=0;points=[[0,0.5],[1,0.5]];portConstraint=eastwest;whiteSpace=wrap;" vertex="1" parent="mwNe0YoGe4067pr5ie4i-10">
          <mxGeometry y="70" width="160" height="20" as="geometry" />
        </mxCell>
        <mxCell id="mwNe0YoGe4067pr5ie4i-14" value="" style="line;strokeWidth=1;fillColor=none;align=left;verticalAlign=middle;spacingTop=-1;spacingLeft=3;spacingRight=3;rotatable=0;labelPosition=right;points=[];portConstraint=eastwest;" vertex="1" parent="mwNe0YoGe4067pr5ie4i-10">
          <mxGeometry y="90" width="160" height="8" as="geometry" />
        </mxCell>
        <mxCell id="mwNe0YoGe4067pr5ie4i-29" style="edgeStyle=entityRelationEdgeStyle;shape=connector;rounded=0;orthogonalLoop=1;jettySize=auto;html=1;entryX=0;entryY=0.5;entryDx=0;entryDy=0;strokeColor=default;align=center;verticalAlign=middle;fontFamily=Helvetica;fontSize=12;fontColor=default;labelBackgroundColor=default;startArrow=ERmandOne;endArrow=ERoneToMany;" edge="1" parent="1" source="mwNe0YoGe4067pr5ie4i-2" target="SWDqvlP3mXcbZtxbsvJl-4">
          <mxGeometry relative="1" as="geometry" />
        </mxCell>
        <mxCell id="mwNe0YoGe4067pr5ie4i-30" style="edgeStyle=entityRelationEdgeStyle;shape=connector;rounded=0;orthogonalLoop=1;jettySize=auto;html=1;entryX=0;entryY=0.5;entryDx=0;entryDy=0;strokeColor=default;align=center;verticalAlign=middle;fontFamily=Helvetica;fontSize=12;fontColor=default;labelBackgroundColor=default;startArrow=ERmandOne;endArrow=ERoneToMany;" edge="1" parent="1" source="mwNe0YoGe4067pr5ie4i-11" target="SWDqvlP3mXcbZtxbsvJl-3">
          <mxGeometry relative="1" as="geometry" />
        </mxCell>
        <mxCell id="mwNe0YoGe4067pr5ie4i-31" value="Ngôn ngữ" style="swimlane;fontStyle=0;align=center;verticalAlign=top;childLayout=stackLayout;horizontal=1;startSize=30;horizontalStack=0;resizeParent=1;resizeParentMax=0;resizeLast=0;collapsible=0;marginBottom=0;html=1;whiteSpace=wrap;" vertex="1" parent="1">
          <mxGeometry y="358" width="160" height="98" as="geometry" />
        </mxCell>
        <mxCell id="mwNe0YoGe4067pr5ie4i-32" value="- MaNN: int" style="text;html=1;strokeColor=none;fillColor=none;align=left;verticalAlign=middle;spacingLeft=4;spacingRight=4;overflow=hidden;rotatable=0;points=[[0,0.5],[1,0.5]];portConstraint=eastwest;whiteSpace=wrap;" vertex="1" parent="mwNe0YoGe4067pr5ie4i-31">
          <mxGeometry y="30" width="160" height="20" as="geometry" />
        </mxCell>
        <mxCell id="mwNe0YoGe4067pr5ie4i-33" value="- TenNN: String" style="text;html=1;strokeColor=none;fillColor=none;align=left;verticalAlign=middle;spacingLeft=4;spacingRight=4;overflow=hidden;rotatable=0;points=[[0,0.5],[1,0.5]];portConstraint=eastwest;whiteSpace=wrap;" vertex="1" parent="mwNe0YoGe4067pr5ie4i-31">
          <mxGeometry y="50" width="160" height="20" as="geometry" />
        </mxCell>
        <mxCell id="mwNe0YoGe4067pr5ie4i-34" value="- MaISO: String" style="text;html=1;strokeColor=none;fillColor=none;align=left;verticalAlign=middle;spacingLeft=4;spacingRight=4;overflow=hidden;rotatable=0;points=[[0,0.5],[1,0.5]];portConstraint=eastwest;whiteSpace=wrap;" vertex="1" parent="mwNe0YoGe4067pr5ie4i-31">
          <mxGeometry y="70" width="160" height="20" as="geometry" />
        </mxCell>
        <mxCell id="mwNe0YoGe4067pr5ie4i-35" value="" style="line;strokeWidth=1;fillColor=none;align=left;verticalAlign=middle;spacingTop=-1;spacingLeft=3;spacingRight=3;rotatable=0;labelPosition=right;points=[];portConstraint=eastwest;" vertex="1" parent="mwNe0YoGe4067pr5ie4i-31">
          <mxGeometry y="90" width="160" height="8" as="geometry" />
        </mxCell>
        <mxCell id="mwNe0YoGe4067pr5ie4i-44" style="edgeStyle=entityRelationEdgeStyle;shape=connector;rounded=0;orthogonalLoop=1;jettySize=auto;html=1;entryX=0;entryY=0.5;entryDx=0;entryDy=0;strokeColor=default;align=center;verticalAlign=middle;fontFamily=Helvetica;fontSize=12;fontColor=default;labelBackgroundColor=default;startArrow=ERmandOne;endArrow=ERoneToMany;" edge="1" parent="1" source="mwNe0YoGe4067pr5ie4i-32" target="SWDqvlP3mXcbZtxbsvJl-7">
          <mxGeometry relative="1" as="geometry" />
        </mxCell>
        <mxCell id="mwNe0YoGe4067pr5ie4i-45" style="edgeStyle=entityRelationEdgeStyle;shape=connector;rounded=0;orthogonalLoop=1;jettySize=auto;html=1;strokeColor=default;align=center;verticalAlign=middle;fontFamily=Helvetica;fontSize=12;fontColor=default;labelBackgroundColor=default;startArrow=ERmandOne;endArrow=ERoneToMany;" edge="1" parent="1" source="fWn43nGe3we49iz473pc-53" target="fWn43nGe3we49iz473pc-58">
          <mxGeometry relative="1" as="geometry" />
        </mxCell>
        <mxCell id="mwNe0YoGe4067pr5ie4i-46" value="Thể loại" style="swimlane;fontStyle=0;align=center;verticalAlign=top;childLayout=stackLayout;horizontal=1;startSize=30;horizontalStack=0;resizeParent=1;resizeParentMax=0;resizeLast=0;collapsible=0;marginBottom=0;html=1;whiteSpace=wrap;" vertex="1" parent="1">
          <mxGeometry y="607" width="160" height="98" as="geometry" />
        </mxCell>
        <mxCell id="mwNe0YoGe4067pr5ie4i-47" value="- MaTL: int" style="text;html=1;strokeColor=none;fillColor=none;align=left;verticalAlign=middle;spacingLeft=4;spacingRight=4;overflow=hidden;rotatable=0;points=[[0,0.5],[1,0.5]];portConstraint=eastwest;whiteSpace=wrap;" vertex="1" parent="mwNe0YoGe4067pr5ie4i-46">
          <mxGeometry y="30" width="160" height="20" as="geometry" />
        </mxCell>
        <mxCell id="mwNe0YoGe4067pr5ie4i-48" value="- TenTheLoai: String" style="text;html=1;strokeColor=none;fillColor=none;align=left;verticalAlign=middle;spacingLeft=4;spacingRight=4;overflow=hidden;rotatable=0;points=[[0,0.5],[1,0.5]];portConstraint=eastwest;whiteSpace=wrap;" vertex="1" parent="mwNe0YoGe4067pr5ie4i-46">
          <mxGeometry y="50" width="160" height="20" as="geometry" />
        </mxCell>
        <mxCell id="mwNe0YoGe4067pr5ie4i-49" value="- MoTa: String" style="text;html=1;strokeColor=none;fillColor=none;align=left;verticalAlign=middle;spacingLeft=4;spacingRight=4;overflow=hidden;rotatable=0;points=[[0,0.5],[1,0.5]];portConstraint=eastwest;whiteSpace=wrap;" vertex="1" parent="mwNe0YoGe4067pr5ie4i-46">
          <mxGeometry y="70" width="160" height="20" as="geometry" />
        </mxCell>
        <mxCell id="mwNe0YoGe4067pr5ie4i-50" value="" style="line;strokeWidth=1;fillColor=none;align=left;verticalAlign=middle;spacingTop=-1;spacingLeft=3;spacingRight=3;rotatable=0;labelPosition=right;points=[];portConstraint=eastwest;" vertex="1" parent="mwNe0YoGe4067pr5ie4i-46">
          <mxGeometry y="90" width="160" height="8" as="geometry" />
        </mxCell>
        <mxCell id="mwNe0YoGe4067pr5ie4i-55" style="edgeStyle=entityRelationEdgeStyle;shape=connector;rounded=0;orthogonalLoop=1;jettySize=auto;html=1;strokeColor=default;align=center;verticalAlign=middle;fontFamily=Helvetica;fontSize=12;fontColor=default;labelBackgroundColor=default;startArrow=ERmandOne;endArrow=ERoneToMany;" edge="1" parent="1" source="mwNe0YoGe4067pr5ie4i-47" target="BS0XPvze6L5QGdwFv2g_-3">
          <mxGeometry relative="1" as="geometry" />
        </mxCell>
        <mxCell id="mwNe0YoGe4067pr5ie4i-56" value="Vị trí" style="swimlane;fontStyle=0;align=center;verticalAlign=top;childLayout=stackLayout;horizontal=1;startSize=30;horizontalStack=0;resizeParent=1;resizeParentMax=0;resizeLast=0;collapsible=0;marginBottom=0;html=1;whiteSpace=wrap;" vertex="1" parent="1">
          <mxGeometry x="340" y="255" width="140" height="83" as="geometry" />
        </mxCell>
        <mxCell id="mwNe0YoGe4067pr5ie4i-57" value="- MaViTri: int" style="text;html=1;strokeColor=none;fillColor=none;align=left;verticalAlign=middle;spacingLeft=4;spacingRight=4;overflow=hidden;rotatable=0;points=[[0,0.5],[1,0.5]];portConstraint=eastwest;whiteSpace=wrap;" vertex="1" parent="mwNe0YoGe4067pr5ie4i-56">
          <mxGeometry y="30" width="140" height="20" as="geometry" />
        </mxCell>
        <mxCell id="mwNe0YoGe4067pr5ie4i-63" value="- ViTri: String" style="text;html=1;strokeColor=none;fillColor=none;align=left;verticalAlign=middle;spacingLeft=4;spacingRight=4;overflow=hidden;rotatable=0;points=[[0,0.5],[1,0.5]];portConstraint=eastwest;whiteSpace=wrap;" vertex="1" parent="mwNe0YoGe4067pr5ie4i-56">
          <mxGeometry y="50" width="140" height="25" as="geometry" />
        </mxCell>
        <mxCell id="mwNe0YoGe4067pr5ie4i-64" value="" style="line;strokeWidth=1;fillColor=none;align=left;verticalAlign=middle;spacingTop=-1;spacingLeft=3;spacingRight=3;rotatable=0;labelPosition=right;points=[];portConstraint=eastwest;" vertex="1" parent="mwNe0YoGe4067pr5ie4i-56">
          <mxGeometry y="75" width="140" height="8" as="geometry" />
        </mxCell>
        <mxCell id="mwNe0YoGe4067pr5ie4i-74" style="edgeStyle=entityRelationEdgeStyle;shape=connector;rounded=0;orthogonalLoop=1;jettySize=auto;html=1;entryX=0;entryY=0.5;entryDx=0;entryDy=0;strokeColor=default;align=center;verticalAlign=middle;fontFamily=Helvetica;fontSize=12;fontColor=default;labelBackgroundColor=default;startArrow=ERmandOne;endArrow=ERoneToMany;" edge="1" parent="1" source="mwNe0YoGe4067pr5ie4i-57" target="SWDqvlP3mXcbZtxbsvJl-9">
          <mxGeometry relative="1" as="geometry" />
        </mxCell>
        <mxCell id="mwNe0YoGe4067pr5ie4i-78" style="edgeStyle=entityRelationEdgeStyle;shape=connector;rounded=0;orthogonalLoop=1;jettySize=auto;html=1;entryX=0;entryY=0.5;entryDx=0;entryDy=0;strokeColor=default;align=center;verticalAlign=middle;fontFamily=Helvetica;fontSize=12;fontColor=default;labelBackgroundColor=default;startArrow=ERmandOne;endArrow=ERoneToMany;exitX=1;exitY=0.5;exitDx=0;exitDy=0;" edge="1" parent="1" source="fWn43nGe3we49iz473pc-29" target="_kpmnMh5QMuOh7V0zKKd-21">
          <mxGeometry relative="1" as="geometry">
            <mxPoint x="730" y="460" as="sourcePoint" />
          </mxGeometry>
        </mxCell>
        <mxCell id="mwNe0YoGe4067pr5ie4i-81" value="Chi tiết phiếu trả" style="swimlane;fontStyle=0;align=center;verticalAlign=top;childLayout=stackLayout;horizontal=1;startSize=27;horizontalStack=0;resizeParent=1;resizeParentMax=0;resizeLast=0;collapsible=0;marginBottom=0;html=1;whiteSpace=wrap;" vertex="1" parent="1">
          <mxGeometry x="760" y="345" width="140" height="115" as="geometry" />
        </mxCell>
        <mxCell id="mwNe0YoGe4067pr5ie4i-109" value="- MaCTPM: int" style="text;html=1;strokeColor=none;fillColor=none;align=left;verticalAlign=middle;spacingLeft=4;spacingRight=4;overflow=hidden;rotatable=0;points=[[0,0.5],[1,0.5]];portConstraint=eastwest;whiteSpace=wrap;" vertex="1" parent="mwNe0YoGe4067pr5ie4i-81">
          <mxGeometry y="27" width="140" height="20" as="geometry" />
        </mxCell>
        <mxCell id="mwNe0YoGe4067pr5ie4i-82" value="- MaPT: String" style="text;html=1;strokeColor=none;fillColor=none;align=left;verticalAlign=middle;spacingLeft=4;spacingRight=4;overflow=hidden;rotatable=0;points=[[0,0.5],[1,0.5]];portConstraint=eastwest;whiteSpace=wrap;" vertex="1" parent="mwNe0YoGe4067pr5ie4i-81">
          <mxGeometry y="47" width="140" height="20" as="geometry" />
        </mxCell>
        <mxCell id="mwNe0YoGe4067pr5ie4i-98" value="- MaPP: int" style="text;html=1;strokeColor=none;fillColor=none;align=left;verticalAlign=middle;spacingLeft=4;spacingRight=4;overflow=hidden;rotatable=0;points=[[0,0.5],[1,0.5]];portConstraint=eastwest;whiteSpace=wrap;" vertex="1" parent="mwNe0YoGe4067pr5ie4i-81">
          <mxGeometry y="67" width="140" height="20" as="geometry" />
        </mxCell>
        <mxCell id="mwNe0YoGe4067pr5ie4i-87" value="- TienPhat: float" style="text;html=1;strokeColor=none;fillColor=none;align=left;verticalAlign=middle;spacingLeft=4;spacingRight=4;overflow=hidden;rotatable=0;points=[[0,0.5],[1,0.5]];portConstraint=eastwest;whiteSpace=wrap;" vertex="1" parent="mwNe0YoGe4067pr5ie4i-81">
          <mxGeometry y="87" width="140" height="20" as="geometry" />
        </mxCell>
        <mxCell id="mwNe0YoGe4067pr5ie4i-88" value="" style="line;strokeWidth=1;fillColor=none;align=left;verticalAlign=middle;spacingTop=-1;spacingLeft=3;spacingRight=3;rotatable=0;labelPosition=right;points=[];portConstraint=eastwest;" vertex="1" parent="mwNe0YoGe4067pr5ie4i-81">
          <mxGeometry y="107" width="140" height="8" as="geometry" />
        </mxCell>
        <mxCell id="mwNe0YoGe4067pr5ie4i-91" value="Phí phạt" style="swimlane;fontStyle=0;align=center;verticalAlign=top;childLayout=stackLayout;horizontal=1;startSize=27;horizontalStack=0;resizeParent=1;resizeParentMax=0;resizeLast=0;collapsible=0;marginBottom=0;html=1;whiteSpace=wrap;" vertex="1" parent="1">
          <mxGeometry x="760" y="500" width="140" height="95" as="geometry" />
        </mxCell>
        <mxCell id="mwNe0YoGe4067pr5ie4i-92" value="- MaPP: int" style="text;html=1;strokeColor=none;fillColor=none;align=left;verticalAlign=middle;spacingLeft=4;spacingRight=4;overflow=hidden;rotatable=0;points=[[0,0.5],[1,0.5]];portConstraint=eastwest;whiteSpace=wrap;" vertex="1" parent="mwNe0YoGe4067pr5ie4i-91">
          <mxGeometry y="27" width="140" height="20" as="geometry" />
        </mxCell>
        <mxCell id="mwNe0YoGe4067pr5ie4i-93" value="- NgayTre: int" style="text;html=1;strokeColor=none;fillColor=none;align=left;verticalAlign=middle;spacingLeft=4;spacingRight=4;overflow=hidden;rotatable=0;points=[[0,0.5],[1,0.5]];portConstraint=eastwest;whiteSpace=wrap;" vertex="1" parent="mwNe0YoGe4067pr5ie4i-91">
          <mxGeometry y="47" width="140" height="20" as="geometry" />
        </mxCell>
        <mxCell id="mwNe0YoGe4067pr5ie4i-94" value="- TienPhat: float" style="text;html=1;strokeColor=none;fillColor=none;align=left;verticalAlign=middle;spacingLeft=4;spacingRight=4;overflow=hidden;rotatable=0;points=[[0,0.5],[1,0.5]];portConstraint=eastwest;whiteSpace=wrap;" vertex="1" parent="mwNe0YoGe4067pr5ie4i-91">
          <mxGeometry y="67" width="140" height="20" as="geometry" />
        </mxCell>
        <mxCell id="mwNe0YoGe4067pr5ie4i-95" value="" style="line;strokeWidth=1;fillColor=none;align=left;verticalAlign=middle;spacingTop=-1;spacingLeft=3;spacingRight=3;rotatable=0;labelPosition=right;points=[];portConstraint=eastwest;" vertex="1" parent="mwNe0YoGe4067pr5ie4i-91">
          <mxGeometry y="87" width="140" height="8" as="geometry" />
        </mxCell>
        <mxCell id="mwNe0YoGe4067pr5ie4i-99" style="edgeStyle=orthogonalEdgeStyle;shape=connector;rounded=0;orthogonalLoop=1;jettySize=auto;html=1;entryX=0;entryY=0.5;entryDx=0;entryDy=0;strokeColor=default;align=center;verticalAlign=middle;fontFamily=Helvetica;fontSize=12;fontColor=default;labelBackgroundColor=default;startArrow=ERmandOne;endArrow=ERoneToMany;exitX=0;exitY=0.5;exitDx=0;exitDy=0;" edge="1" parent="1" source="mwNe0YoGe4067pr5ie4i-92" target="mwNe0YoGe4067pr5ie4i-98">
          <mxGeometry relative="1" as="geometry" />
        </mxCell>
        <mxCell id="mwNe0YoGe4067pr5ie4i-105" style="edgeStyle=entityRelationEdgeStyle;shape=connector;rounded=0;orthogonalLoop=1;jettySize=auto;html=1;entryX=1;entryY=0.5;entryDx=0;entryDy=0;strokeColor=default;align=center;verticalAlign=middle;fontFamily=Helvetica;fontSize=12;fontColor=default;labelBackgroundColor=default;startArrow=ERmandOne;endArrow=ERoneToMany;" edge="1" parent="1" source="fWn43nGe3we49iz473pc-45" target="mwNe0YoGe4067pr5ie4i-82">
          <mxGeometry relative="1" as="geometry" />
        </mxCell>
        <mxCell id="mwNe0YoGe4067pr5ie4i-107" style="edgeStyle=orthogonalEdgeStyle;shape=connector;rounded=0;orthogonalLoop=1;jettySize=auto;html=1;entryX=0;entryY=0.5;entryDx=0;entryDy=0;strokeColor=default;align=center;verticalAlign=middle;fontFamily=Helvetica;fontSize=12;fontColor=default;labelBackgroundColor=default;startArrow=ERmandOne;endArrow=ERoneToMany;" edge="1" parent="1" source="fWn43nGe3we49iz473pc-37" target="_kpmnMh5QMuOh7V0zKKd-3">
          <mxGeometry relative="1" as="geometry" />
        </mxCell>
        <mxCell id="mwNe0YoGe4067pr5ie4i-110" style="edgeStyle=entityRelationEdgeStyle;shape=connector;rounded=0;orthogonalLoop=1;jettySize=auto;html=1;entryX=1;entryY=0.5;entryDx=0;entryDy=0;strokeColor=default;align=center;verticalAlign=middle;fontFamily=Helvetica;fontSize=12;fontColor=default;labelBackgroundColor=default;startArrow=ERmandOne;endArrow=ERmandOne;endFill=0;" edge="1" parent="1" source="mwNe0YoGe4067pr5ie4i-108" target="mwNe0YoGe4067pr5ie4i-109">
          <mxGeometry relative="1" as="geometry" />
        </mxCell>
        <mxCell id="mwNe0YoGe4067pr5ie4i-111" style="edgeStyle=entityRelationEdgeStyle;shape=connector;rounded=0;orthogonalLoop=1;jettySize=auto;html=1;entryX=1;entryY=0.5;entryDx=0;entryDy=0;strokeColor=default;align=center;verticalAlign=middle;fontFamily=Helvetica;fontSize=12;fontColor=default;labelBackgroundColor=default;startArrow=ERmandOne;endArrow=ERoneToMany;" edge="1" parent="1" source="fWn43nGe3we49iz473pc-13" target="fWn43nGe3we49iz473pc-67">
          <mxGeometry relative="1" as="geometry" />
        </mxCell>
      </root>
    </mxGraphModel>
  </diagram>
</mxfile>
